<?xml version="1.0" standalone="no"?>
<!DOCTYPE svg PUBLIC "-//W3C//DTD SVG 20010904//EN"
 "http://www.w3.org/TR/2001/REC-SVG-20010904/DTD/svg10.dtd">
<svg version="1.0" xmlns="http://www.w3.org/2000/svg"
 width="252.000000pt" height="300.000000pt" viewBox="0 0 252.000000 300.000000"
 preserveAspectRatio="xMidYMid meet">

<g transform="translate(0.000000,300.000000) scale(0.100000,-0.100000)"
fill="#000000" stroke="none">
<path d="M1522 2972 c-114 -60 -185 -208 -185 -382 0 -97 17 -169 56 -243 83
-158 241 -203 349 -100 25 24 29 60 4 46 -6 -3 -6 -1 2 8 16 17 18 574 2 584
-8 5 -8 11 -1 19 12 15 -15 45 -64 70 -40 21 -122 20 -163 -2z m238 -695 c0
-2 -10 -12 -22 -23 l-23 -19 19 23 c18 21 26 27 26 19z"/>
<path d="M809 2957 c-162 -85 -220 -397 -114 -607 56 -110 136 -170 226 -170
132 0 231 115 260 299 23 155 -20 316 -114 419 -76 82 -172 104 -258 59z"/>
<path d="M209 2400 c-51 -27 -93 -79 -120 -147 -34 -85 -34 -239 0 -342 79
-241 283 -357 423 -241 119 98 143 342 54 535 -81 173 -237 259 -357 195z"/>
<path d="M1133 2066 c-39 -8 -98 -26 -129 -40 -57 -26 -169 -104 -162 -112 3
-2 29 -8 58 -14 159 -30 273 -135 331 -304 16 -44 30 -73 33 -66 2 8 10 33 16
55 21 68 70 152 119 201 54 55 159 109 232 119 l49 7 -42 34 c-136 108 -328
153 -505 120z"/>
<path d="M714 1500 c-66 -14 -133 -53 -214 -125 -40 -36 -112 -87 -159 -113
-381 -209 -456 -700 -152 -1002 133 -132 272 -185 465 -178 133 5 219 32 317
99 l64 44 -72 6 c-230 21 -338 261 -221 494 39 79 81 130 198 245 53 52 105
113 115 135 27 58 32 155 10 212 -49 127 -212 212 -351 183z m230 -182 c31
-45 13 -128 -36 -162 -31 -22 -45 -20 -73 9 -29 28 -33 80 -10 125 28 53 91
68 119 28z"/>
<path d="M1624 1479 c-64 -24 -129 -79 -156 -133 -12 -24 -23 -68 -26 -107 -7
-102 22 -156 149 -277 55 -53 104 -96 107 -95 10 2 32 -18 32 -30 0 -6 -7 -2
-16 9 -15 19 -15 19 -5 -1 6 -11 19 -31 29 -44 19 -24 19 -20 21 319 2 273 0
345 -11 352 -10 6 -10 10 2 18 28 18 -72 10 -126 -11z m42 -156 c16 -15 31
-27 34 -26 3 1 6 -29 6 -67 1 -45 -3 -68 -10 -67 -6 1 -10 -3 -9 -8 2 -15 -53
-18 -78 -5 -58 31 -78 132 -34 175 31 32 55 31 91 -2z m57 -134 c-5 -5 -6 11
-3 34 4 41 5 41 8 8 2 -18 0 -37 -5 -42z"/>
<path d="M1140 819 c-98 -17 -120 -27 -120 -57 0 -21 10 -33 45 -55 87 -55
135 -136 143 -239 6 -82 -18 -139 -83 -196 l-44 -38 30 -59 c16 -32 48 -83 70
-112 37 -48 45 -53 80 -53 35 0 41 4 82 63 25 34 55 83 68 109 l22 47 -51 55
c-61 68 -76 109 -69 192 6 85 46 155 123 217 60 48 75 76 52 94 -39 30 -248
50 -348 32z"/>
<path d="M1744 311 c-38 -46 -118 -83 -184 -85 l-59 -1 27 -23 c45 -37 105
-71 167 -92 66 -23 77 -24 55 -9 -11 8 -12 12 -2 16 8 3 12 29 12 79 0 58 -3
73 -12 68 -8 -5 -7 0 2 11 9 11 10 16 3 11 -18 -10 -16 4 4 26 9 10 14 20 12
22 -2 2 -14 -9 -25 -23z"/>
</g>
</svg>
